<svg width="56" height="56" viewBox="0 0 56 56" fill="none" xmlns="http://www.w3.org/2000/svg">
<rect width="56" height="56" rx="28" fill="#e35205"/>
<mask id="mask0_2249_3032" style="mask-type:luminance" maskUnits="userSpaceOnUse" x="12" y="12" width="30" height="30">
<path d="M42 12H12V42H42V12Z" fill="white"/>
</mask>
<g mask="url(#mask0_2249_3032)">
<path d="M29.6472 35.3726H24.2687C23.7713 35.3726 23.3681 35.7758 23.3681 36.2732C23.3681 36.7706 23.7713 37.1738 24.2687 37.1738H29.6472C30.1446 37.1738 30.5478 36.7706 30.5478 36.2732C30.5478 35.7758 30.1446 35.3726 29.6472 35.3726Z" fill="white"/>
<path d="M26.9581 40.2275C27.9795 40.2274 28.829 39.4419 28.9091 38.4237H25.0069C25.087 39.4421 25.9367 40.2275 26.9581 40.2275Z" fill="white"/>
<path d="M34.7622 25.898V25.628C34.6843 21.3653 31.2215 17.9423 26.9581 17.9137C22.6945 17.942 19.2312 21.365 19.1531 25.628V25.898C19.1823 26.8226 19.366 27.7357 19.6966 28.5996C20.013 29.4148 20.4724 30.1671 21.0531 30.8208C21.7675 31.6021 22.5509 33.1171 22.8813 33.7896C22.9825 33.9936 23.1906 34.1227 23.4184 34.1227H30.4969C30.7247 34.1226 30.9329 33.9936 31.0344 33.7896C31.3644 33.1174 32.1478 31.6021 32.8622 30.8208C33.443 30.1671 33.9024 29.4148 34.2188 28.5996C34.5492 27.7357 34.7329 26.8226 34.7622 25.898ZM32.9612 25.8668C32.9341 26.5862 32.7888 27.2963 32.5312 27.9687C32.2931 28.5746 31.9496 29.1335 31.5166 29.6196C30.8286 30.4489 30.2393 31.3554 29.7606 32.3208H24.1537C23.6752 31.3554 23.0859 30.4489 22.3978 29.6196C21.9648 29.1336 21.6213 28.5746 21.3835 27.9687C21.126 27.2965 20.981 26.5866 20.9541 25.8674V25.6424C21.0147 22.3646 23.6792 19.7338 26.9575 19.7146C30.2361 19.7336 32.9006 22.365 32.9606 25.643L32.9612 25.8668Z" fill="white"/>
<path d="M27.0194 16.6875C27.3646 16.6875 27.6444 16.4077 27.6444 16.0625V13.875C27.6444 13.5298 27.3646 13.25 27.0194 13.25C26.6742 13.25 26.3944 13.5298 26.3944 13.875V16.0625C26.3944 16.4077 26.6742 16.6875 27.0194 16.6875Z" fill="white"/>
<path d="M19.6019 19.4375C19.8417 19.6858 20.2373 19.6927 20.4856 19.4529C20.7339 19.2131 20.7408 18.8174 20.501 18.5692C20.496 18.5639 20.4908 18.5588 20.4856 18.5538L18.9375 17.0057C18.6892 16.7658 18.2936 16.7727 18.0538 17.021C17.8198 17.2632 17.8198 17.6472 18.0538 17.8894L19.6019 19.4375Z" fill="white"/>
<path d="M34.0034 19.7379C34.1692 19.7378 34.3281 19.672 34.4453 19.5547L35.9919 18.0079C36.2267 17.7548 36.2118 17.3594 35.9588 17.1246C35.7188 16.902 35.3478 16.9022 35.1081 17.125L33.5625 18.671C33.3185 18.9151 33.3185 19.3108 33.5626 19.5549C33.6798 19.672 33.8377 19.7378 34.0034 19.7379Z" fill="white"/>
<path d="M17.3125 24.9688H15.125C14.7798 24.9688 14.5 25.2485 14.5 25.5938C14.5 25.9388 14.7798 26.2188 15.125 26.2188H17.3125C17.6577 26.2188 17.9375 25.9388 17.9375 25.5938C17.9375 25.2485 17.6577 24.9688 17.3125 24.9688Z" fill="white"/>
<path d="M19.6019 31.73L18.055 33.2769C17.8008 33.5105 17.7842 33.9058 18.0178 34.16C18.2513 34.4141 18.6467 34.4308 18.9009 34.1972C18.9136 34.1855 18.9258 34.1733 18.9375 34.1606L20.4844 32.6137C20.7326 32.3739 20.7395 31.9783 20.4997 31.73C20.2599 31.4817 19.8643 31.4748 19.616 31.7146C19.6108 31.7197 19.6056 31.7248 19.6006 31.73H19.6019Z" fill="white"/>
<path d="M34.4453 31.6116C34.2103 31.3588 33.8148 31.3444 33.562 31.5794C33.3092 31.8144 33.2948 32.2099 33.5299 32.4627C33.5403 32.474 33.5512 32.4848 33.5625 32.4953L35.1091 34.0419C35.3573 34.2817 35.753 34.2748 35.9928 34.0265C36.2267 33.7843 36.2267 33.4003 35.9928 33.1581L34.4453 31.6116Z" fill="white"/>
<path d="M38.7969 24.9475H36.6094C36.2642 24.9475 35.9844 25.2273 35.9844 25.5725C35.9844 25.9177 36.2642 26.1975 36.6094 26.1975H38.7969C39.1421 26.1975 39.4219 25.9177 39.4219 25.5725C39.4219 25.2273 39.1421 24.9475 38.7969 24.9475Z" fill="white"/>
</g>
</svg>
