<svg width="137" height="48" viewBox="0 0 137 48" fill="none" xmlns="http://www.w3.org/2000/svg">
<g clip-path="url(#clip0_4533_598)">
<path d="M60.5369 19.1157L55.2281 10.021V19.1157H52.8306V6.56836H55.5706L60.7938 15.6631V6.56836H63.1913V19.1157H60.5369Z" fill="#E35205"/>
<path d="M71.4969 19.3683C67.7294 19.3683 64.7325 16.5052 64.7325 12.8841C64.7325 9.17885 67.6437 6.3999 71.4969 6.3999C75.1787 6.3999 78.09 9.34727 78.09 12.8841C78.0044 16.5052 75.1787 19.3683 71.4969 19.3683ZM71.4113 8.58938C68.9281 8.58938 67.0444 10.442 67.0444 12.8841C67.0444 15.242 68.9281 17.1788 71.4113 17.1788C73.8088 17.1788 75.6069 15.3262 75.6069 12.9683C75.6925 10.442 73.8088 8.58938 71.4113 8.58938Z" fill="#E35205"/>
<path d="M85.3681 19.1157L82.0288 14.3157V19.1157H79.6312V6.56836H83.3131C85.0256 6.56836 85.9675 6.82099 86.8237 7.49467C87.68 8.25257 88.1937 9.34731 88.1937 10.6105C88.1937 12.5473 87.1662 13.9789 84.8544 14.4841L88.2794 19.1157H85.3681ZM83.0562 8.75783H82.0288V12.5473H83.2275C85.0256 12.5473 85.8819 11.9578 85.8819 10.6105C85.7963 9.51573 85.3681 8.75783 83.0562 8.75783Z" fill="#E35205"/>
<path d="M93.3312 8.75783V19.1157H90.9337V8.75783H88.5363V6.56836H95.6431V8.75783H93.3312Z" fill="#E35205"/>
<path d="M103.606 19.1157V13.8105H99.0681V19.1157H96.6706V6.56836H99.0681V11.621H103.606V6.56836H106.004V19.1157H103.606Z" fill="#E35205"/>
<path d="M108.144 19.1157V6.56836H114.994V8.75783H110.456V11.7052H114.738V13.8947H110.456V16.842H114.994V19.0315H108.144V19.1157Z" fill="#E35205"/>
<path d="M122.615 19.1157L119.276 14.3157V19.1157H116.878V6.56836H120.56C122.273 6.56836 123.214 6.82099 124.071 7.49467C124.927 8.25257 125.441 9.34731 125.441 10.6105C125.441 12.5473 124.413 13.9789 122.101 14.4841L125.526 19.1157H122.615ZM120.303 8.75783H119.276V12.5473H120.474C122.273 12.5473 123.129 11.9578 123.129 10.6105C123.043 9.51573 122.529 8.75783 120.303 8.75783Z" fill="#E35205"/>
<path d="M134.346 19.1157L129.037 10.021V19.1157H126.639V6.56836H129.379L134.688 15.7473V6.56836H137.086V19.1157H134.346Z" fill="#E35205"/>
<path d="M56.2556 23.5789V33.4315H54.0294V23.5789H51.8031V21.4736H58.5675V23.5789H56.2556Z" fill="#E35205"/>
<path d="M59.7663 33.4315V21.4736H66.3594V23.5789H62.0781V26.4421H66.1881V28.5473H62.0781V31.3263H66.3594V33.4315H59.7663Z" fill="#E35205"/>
<path d="M73.2094 33.4315L70.0412 28.7999V33.4315H67.815V21.4736H71.3256C72.9525 21.4736 73.8944 21.7263 74.665 22.3999C75.5212 23.0736 75.9494 24.1684 75.9494 25.3473C75.9494 27.1999 74.9219 28.5473 72.7812 29.0526L76.1206 33.5157H73.2094V33.4315ZM71.0687 23.5789H70.0412V27.1999H71.1544C72.8669 27.1999 73.6375 26.6105 73.6375 25.3473C73.6375 24.2526 73.2094 23.5789 71.0687 23.5789Z" fill="#E35205"/>
<path d="M82.6281 33.4315L79.46 28.7999V33.4315H77.2337V21.4736H80.7444C82.3713 21.4736 83.3131 21.7263 84.0837 22.3999C84.94 23.0736 85.3681 24.1684 85.3681 25.3473C85.3681 27.1999 84.3406 28.5473 82.2 29.0526L85.5394 33.5157H82.6281V33.4315ZM80.4019 23.5789H79.3744V27.1999H80.4875C82.2 27.1999 82.9706 26.6105 82.9706 25.3473C82.9706 24.2526 82.5425 23.5789 80.4019 23.5789Z" fill="#E35205"/>
<path d="M86.4813 33.4315V21.4736H88.7075V33.4315H86.4813Z" fill="#E35205"/>
<path d="M94.3587 23.5789V33.4315H92.1325V23.5789H89.9062V21.4736H96.6706V23.5789H94.3587Z" fill="#E35205"/>
<path d="M102.921 33.6841C99.325 33.6841 96.4994 30.9052 96.4994 27.4525C96.4994 23.9157 99.325 21.2209 102.921 21.2209C106.432 21.2209 109.172 23.9999 109.172 27.4525C109.258 30.9052 106.517 33.6841 102.921 33.6841ZM102.921 23.4104C100.609 23.4104 98.8113 25.1788 98.8113 27.4525C98.8113 29.7262 100.609 31.4946 102.921 31.4946C105.233 31.4946 106.946 29.7262 106.946 27.4525C106.946 25.1788 105.233 23.4104 102.921 23.4104Z" fill="#E35205"/>
<path d="M115.936 33.4315L112.768 28.7999V33.4315H110.456V21.4736H113.967C115.594 21.4736 116.536 21.7263 117.306 22.3999C118.162 23.0736 118.591 24.1684 118.591 25.3473C118.591 27.1999 117.563 28.5473 115.423 29.0526L118.762 33.5157H115.936V33.4315ZM113.71 23.5789H112.683V27.1999H113.796C115.508 27.1999 116.279 26.6105 116.279 25.3473C116.279 24.2526 115.851 23.5789 113.71 23.5789Z" fill="#E35205"/>
<path d="M124.756 28.9684V33.4315H122.444V28.9684L118.419 21.3894H120.902L123.642 26.9473L126.297 21.3894H128.78L124.756 28.9684Z" fill="#E35205"/>
<path d="M56.3413 43.2C53.9438 43.2 52.06 41.4315 52.06 39.2421C52.06 37.0526 53.8581 35.2842 56.17 35.2842C57.8825 35.2842 59.3381 36.1263 59.8519 37.4737H58.9956C58.4819 36.5473 57.4544 35.9579 56.2556 35.9579C54.3719 35.9579 52.8306 37.3894 52.8306 39.2421C52.8306 41.0947 54.3719 42.5263 56.2556 42.5263C57.7969 42.5263 59.1669 41.4315 59.4237 40.2526H55.0569V39.5789H60.3656C60.3656 41.4315 58.6531 43.2 56.3413 43.2Z" fill="#E35205"/>
<path d="M65.5031 43.2C63.1912 43.2 61.3931 41.4315 61.3931 39.1578C61.3931 37.0526 63.2769 35.2 65.5031 35.2C67.7294 35.2 69.6131 36.9684 69.6131 39.1578C69.6131 41.3473 67.7294 43.2 65.5031 43.2ZM65.5031 35.8736C63.705 35.8736 62.1637 37.3894 62.1637 39.1578C62.1637 41.0105 63.705 42.4421 65.5031 42.4421C67.3012 42.4421 68.8425 40.9263 68.8425 39.1578C68.8425 37.3894 67.3012 35.8736 65.5031 35.8736Z" fill="#E35205"/>
<path d="M73.7231 43.0316H72.9525L69.7844 35.3684H70.6406L73.3806 42.1053L76.1206 35.3684H76.9769L73.7231 43.0316Z" fill="#E35205"/>
<path d="M77.9188 43.0316V35.3684H82.2V36.0421H78.6894V38.821H82.0288V39.4947H78.6894V42.3579H82.2V43.0316H77.9188Z" fill="#E35205"/>
<path d="M86.5669 40.1684L88.7931 43.0316H87.8512L85.1113 39.5789C87.3375 39.5789 88.0225 39.2421 88.0225 37.8105C88.0225 36.5474 87.2519 36.0421 85.3681 36.0421H84.255V43.0316H83.4844V35.3684H85.4538C87.9369 35.3684 88.7931 36.2105 88.7931 37.8105C88.8787 39.1579 88.0225 40 86.5669 40.1684Z" fill="#E35205"/>
<path d="M95.3863 43.0316L90.7625 36.2947V43.0316H89.9919V35.3684H91.0194L95.3863 41.7684V35.3684H96.1569V43.0316H95.3863Z" fill="#E35205"/>
<path d="M105.148 43.0316V36.2105L102.236 43.0316H101.551L98.64 36.2105V43.0316H97.8694V35.3684H99.0681L101.894 41.9368L104.719 35.3684H105.918V43.0316H105.148Z" fill="#E35205"/>
<path d="M107.545 43.0316V35.3684H111.826V36.0421H108.316V38.821H111.655V39.4947H108.316V42.3579H111.826V43.0316H107.545Z" fill="#E35205"/>
<path d="M118.591 43.0316L113.967 36.2947V43.0316H113.196V35.3684H114.224L118.591 41.7684V35.3684H119.361V43.0316H118.591Z" fill="#E35205"/>
<path d="M122.872 36.0421V43.0316H122.101V36.0421H120.303V35.3684H124.67V36.0421H122.872Z" fill="#E35205"/>
<path d="M20.3787 0.336786C18.3237 0.673628 16.2687 3.95784 17.125 6.39994C18.3237 9.85258 20.8925 15.4947 24.4888 15.5789C28.085 15.4947 30.6538 9.85258 31.8525 6.39994C32.7088 3.95784 30.6538 0.757838 28.5988 0.336786C26.6294 -0.0842671 23.1187 -0.0842671 20.3787 0.336786Z" fill="#E35205"/>
<path d="M3.16812 12.3789C2.14062 14.2315 3.425 17.8526 5.8225 18.6947C9.2475 19.8736 15.2412 21.3894 17.5531 18.6105C19.6937 15.7473 16.9537 10.1894 14.9844 7.15785C13.7 4.96837 9.9325 4.63153 8.30562 5.89469C6.67875 7.24206 4.53812 10.021 3.16812 12.3789Z" fill="#E35205"/>
<path d="M1.79813 33.5157C2.56875 35.4526 6.25063 36.7157 8.39125 35.3684C11.4738 33.4315 16.3544 29.6421 15.6694 26.1052C14.8131 22.5684 8.73375 21.3894 5.1375 20.9684C2.56875 20.6315 -0.0856214 23.4105 3.58699e-06 25.5157C3.58699e-06 27.4526 0.770629 30.9052 1.79813 33.5157Z" fill="#E35205"/>
<path d="M17.3819 47.6632C19.4369 48.2527 22.6906 46.2316 22.9475 43.6211C23.29 40.0001 23.4612 33.7685 20.2931 32.1685C17.0394 30.6527 12.33 34.6948 9.76125 37.2211C7.8775 39.0737 8.39125 42.779 10.0181 44.1264C11.5594 45.3895 14.7275 46.9053 17.3819 47.6632Z" fill="#E35205"/>
<path d="M38.1031 44.2948C39.8156 43.1159 40.2437 39.2422 38.4456 37.3896C35.8769 34.8632 31.1675 30.8211 27.8281 32.3369C24.66 33.9369 24.7456 40.1685 25.1737 43.7896C25.4306 46.4001 28.6844 48.3369 30.7394 47.8317C32.7087 47.4106 35.8769 45.8948 38.1031 44.2948Z" fill="#E35205"/>
<path d="M48.3781 25.9369C48.5494 23.8317 45.8094 21.1369 43.2406 21.3896C39.6444 21.8106 33.6506 23.0738 32.7087 26.5264C32.0237 30.0633 36.9044 33.8527 39.9012 35.7896C42.1275 37.2212 45.6381 35.8738 46.4944 33.9369C47.4362 32.0843 48.2069 28.7159 48.3781 25.9369Z" fill="#E35205"/>
<path d="M40.5006 6.31575C38.9594 4.88417 35.1062 5.30522 33.7362 7.57891C31.8525 10.6947 29.0269 16.1684 31.1675 19.0315C33.4794 21.8105 39.4731 20.2947 42.8981 19.1158C45.3812 18.2736 46.4944 14.6526 45.6381 12.8C44.7819 10.9473 42.5556 8.16838 40.5006 6.31575Z" fill="#E35205"/>
<path d="M29.8831 13.0527C29.6262 14.5685 27.5712 18.6106 29.1981 20.6316C30.9106 22.8211 35.1062 21.558 36.7331 21.7264L36.5619 21.8106C35.1919 22.5685 30.825 23.4948 30.3112 26.0211C29.7119 28.8001 33.3081 31.2422 34.1644 32.5895L33.9931 32.5053C32.5375 31.9159 29.1125 29.0527 26.8006 30.1474C24.3175 31.3264 24.5744 35.7053 24.0606 37.3053V37.0527C23.6325 35.5369 23.7181 31.0737 21.4062 29.979C18.9231 28.7159 15.6694 31.7474 14.2137 32.3369L14.385 32.1685C15.3269 30.9053 18.8375 28.2106 18.2381 25.6843C17.6387 22.9895 13.3575 22.3159 11.9019 21.4738H12.1587C13.7 21.3895 18.0669 22.4843 19.6081 20.4632C21.3206 18.2738 19.18 14.4843 19.0087 12.8843L19.0944 13.0527C20.1219 14.2316 21.92 18.2738 24.4887 18.2738C27.3144 18.2738 28.9412 14.2316 29.9687 13.0527H29.8831Z" fill="#E35205"/>
</g>
<defs>
<clipPath id="clip0_4533_598">
<rect width="137" height="48" fill="white"/>
</clipPath>
</defs>
</svg>
