<?xml version="1.0" encoding="UTF-8"?><svg id="Layer_1" xmlns="http://www.w3.org/2000/svg" viewBox="0 0 457.73 178.69"><defs><style>.cls-1{fill:#073552;}.cls-2{fill:#eb6321;}</style></defs><path class="cls-1" d="M106.65,1.39c3.55,0,6.59.34,9.11,1.01,2.52.67,4.59,1.64,6.21,2.89,1.61,1.25,2.79,2.76,3.54,4.54.75,1.78,1.12,3.78,1.12,6,0,1.27-.19,2.49-.56,3.66s-.96,2.25-1.74,3.26c-.79,1.01-1.79,1.93-3,2.76-1.21.82-2.66,1.52-4.33,2.1,7.45,1.68,11.17,5.7,11.17,12.08,0,2.3-.44,4.42-1.31,6.38s-2.15,3.63-3.82,5.04c-1.68,1.41-3.74,2.52-6.19,3.32-2.45.8-5.25,1.2-8.4,1.2h-20.48V1.39h18.67ZM98.06,9.19v15.67h8.02c3.45,0,6.06-.62,7.82-1.88,1.76-1.25,2.64-3.24,2.64-5.96s-.8-4.84-2.4-6.04c-1.6-1.2-4.1-1.8-7.5-1.8h-8.59ZM108.26,47.74c1.88,0,3.45-.23,4.72-.67,1.28-.45,2.29-1.05,3.06-1.8.76-.75,1.31-1.62,1.65-2.62.34-1,.51-2.06.51-3.19s-.19-2.23-.56-3.17-.96-1.74-1.76-2.4c-.8-.66-1.83-1.17-3.09-1.52-1.26-.35-2.78-.52-4.56-.52h-10.16v15.9h10.2Z"/><path class="cls-1" d="M168.38,17.14v38.48h-5.66c-1.23,0-2-.56-2.33-1.69l-.64-3.08c-1.58,1.6-3.31,2.89-5.21,3.88-1.9.99-4.14,1.48-6.71,1.48-2.1,0-3.96-.36-5.57-1.07-1.61-.71-2.97-1.72-4.07-3.02-1.1-1.3-1.93-2.84-2.49-4.63-.56-1.79-.84-3.76-.84-5.91v-24.45h9.26v24.45c0,2.35.54,4.17,1.63,5.46,1.09,1.29,2.72,1.93,4.89,1.93,1.6,0,3.1-.36,4.5-1.07,1.4-.71,2.72-1.69,3.98-2.94v-27.83h9.26Z"/><path class="cls-1" d="M201,24.64c-.25.4-.51.68-.79.84-.28.16-.63.24-1.05.24-.45,0-.93-.12-1.44-.38-.51-.25-1.11-.53-1.78-.84-.67-.31-1.44-.59-2.31-.84-.86-.25-1.88-.38-3.06-.38-1.83,0-3.26.39-4.29,1.16-1.04.78-1.56,1.79-1.56,3.04,0,.83.27,1.52.81,2.08s1.25,1.06,2.14,1.48c.89.43,1.89.81,3.02,1.14,1.12.34,2.27.71,3.43,1.11,1.16.4,2.31.86,3.43,1.37,1.12.51,2.13,1.16,3.02,1.95.89.79,1.6,1.73,2.14,2.83.54,1.1.81,2.43.81,3.98,0,1.85-.33,3.56-.99,5.12-.66,1.56-1.64,2.91-2.94,4.05-1.3,1.14-2.91,2.02-4.82,2.66-1.91.64-4.12.96-6.62.96-1.33,0-2.62-.12-3.88-.36-1.26-.24-2.48-.57-3.64-.99-1.16-.42-2.24-.92-3.23-1.5-.99-.57-1.86-1.2-2.61-1.88l2.14-3.52c.27-.42.6-.75.98-.98s.85-.34,1.42-.34,1.12.16,1.63.49c.51.33,1.11.68,1.78,1.05.67.38,1.47.73,2.38,1.05.91.33,2.07.49,3.47.49,1.1,0,2.04-.13,2.83-.39s1.44-.61,1.95-1.03c.51-.42.89-.92,1.12-1.48.24-.56.36-1.14.36-1.74,0-.9-.27-1.64-.81-2.21-.54-.57-1.25-1.07-2.14-1.5-.89-.42-1.9-.81-3.04-1.14-1.14-.34-2.3-.71-3.49-1.11-1.19-.4-2.35-.87-3.49-1.41-1.14-.54-2.15-1.22-3.04-2.04-.89-.82-1.6-1.84-2.14-3.04-.54-1.2-.81-2.65-.81-4.35,0-1.58.31-3.08.94-4.5.62-1.43,1.54-2.67,2.76-3.73,1.21-1.06,2.72-1.91,4.54-2.55,1.81-.64,3.91-.96,6.28-.96,2.65,0,5.06.44,7.24,1.31,2.18.88,3.99,2.03,5.44,3.45l-2.1,3.34Z"/><path class="cls-1" d="M221.36,5.92c0,.8-.16,1.55-.49,2.25-.33.7-.76,1.31-1.29,1.84-.54.52-1.17.94-1.89,1.26-.73.31-1.5.47-2.32.47s-1.56-.16-2.27-.47c-.71-.31-1.33-.73-1.86-1.26-.53-.52-.94-1.14-1.26-1.84-.31-.7-.47-1.45-.47-2.25s.16-1.6.47-2.33c.31-.72.73-1.35,1.26-1.88s1.14-.94,1.86-1.26,1.47-.47,2.27-.47,1.6.16,2.32.47,1.36.73,1.89,1.26c.54.53.97,1.15,1.29,1.88.32.73.49,1.5.49,2.33ZM220.09,17.14v38.48h-9.3V17.14h9.3Z"/><path class="cls-1" d="M238.2,21.86c.77-.77,1.59-1.49,2.46-2.16.86-.66,1.77-1.22,2.74-1.69.96-.46,1.99-.83,3.09-1.09,1.1-.26,2.3-.39,3.6-.39,2.1,0,3.96.36,5.59,1.07s2.98,1.71,4.07,3c1.09,1.29,1.91,2.83,2.47,4.61.56,1.79.84,3.76.84,5.91v24.49h-9.26v-24.49c0-2.35-.54-4.17-1.61-5.46-1.08-1.29-2.71-1.93-4.91-1.93-1.6,0-3.1.36-4.5,1.09-1.4.73-2.73,1.71-3.98,2.96v27.83h-9.26V17.14h5.66c1.2,0,1.99.56,2.36,1.69l.64,3.04Z"/><path class="cls-1" d="M278.96,37.54c.15,1.98.5,3.68,1.05,5.12s1.28,2.62,2.17,3.56c.9.94,1.97,1.64,3.21,2.1,1.24.46,2.61.69,4.11.69s2.79-.17,3.88-.52c1.09-.35,2.04-.74,2.85-1.16.81-.42,1.52-.81,2.14-1.16.61-.35,1.21-.52,1.78-.52.77,0,1.35.29,1.72.86l2.66,3.38c-1.03,1.2-2.18,2.21-3.45,3.02-1.28.81-2.61,1.46-3.99,1.95-1.39.49-2.8.83-4.24,1.03-1.44.2-2.83.3-4.18.3-2.67,0-5.16-.44-7.46-1.33-2.3-.89-4.3-2.2-6-3.94-1.7-1.74-3.04-3.89-4.01-6.45-.97-2.56-1.46-5.53-1.46-8.91,0-2.62.42-5.09,1.28-7.41.85-2.31,2.07-4.32,3.66-6.04,1.59-1.71,3.53-3.07,5.81-4.07,2.29-1,4.87-1.5,7.74-1.5,2.42,0,4.66.39,6.71,1.16,2.05.78,3.81,1.91,5.29,3.39,1.47,1.49,2.63,3.31,3.47,5.47.84,2.16,1.26,4.63,1.26,7.41,0,1.4-.15,2.34-.45,2.83-.3.49-.88.73-1.72.73h-23.81ZM296.62,31.95c0-1.2-.17-2.33-.51-3.39-.34-1.06-.84-1.99-1.52-2.79-.68-.8-1.53-1.43-2.57-1.89-1.04-.46-2.24-.69-3.62-.69-2.68,0-4.78.76-6.32,2.29-1.54,1.52-2.52,3.69-2.94,6.49h17.47Z"/><path class="cls-1" d="M335.36,24.64c-.25.4-.51.68-.79.84-.28.16-.62.24-1.05.24-.45,0-.93-.12-1.44-.38-.51-.25-1.11-.53-1.78-.84-.67-.31-1.44-.59-2.31-.84-.86-.25-1.88-.38-3.06-.38-1.83,0-3.26.39-4.29,1.16-1.04.78-1.56,1.79-1.56,3.04,0,.83.27,1.52.81,2.08.54.56,1.25,1.06,2.14,1.48.89.43,1.89.81,3.02,1.14,1.12.34,2.27.71,3.43,1.11,1.16.4,2.31.86,3.43,1.37,1.12.51,2.13,1.16,3.02,1.95.89.79,1.6,1.73,2.14,2.83.54,1.1.81,2.43.81,3.98,0,1.85-.33,3.56-.99,5.12-.66,1.56-1.64,2.91-2.94,4.05s-2.91,2.02-4.82,2.66c-1.91.64-4.12.96-6.62.96-1.33,0-2.62-.12-3.88-.36-1.26-.24-2.48-.57-3.64-.99-1.16-.42-2.24-.92-3.23-1.5-.99-.57-1.86-1.2-2.61-1.88l2.14-3.52c.28-.42.6-.75.98-.98s.85-.34,1.42-.34,1.12.16,1.63.49c.51.33,1.11.68,1.78,1.05.68.38,1.47.73,2.38,1.05.91.33,2.07.49,3.47.49,1.1,0,2.04-.13,2.83-.39s1.44-.61,1.95-1.03c.51-.42.89-.92,1.12-1.48.24-.56.36-1.14.36-1.74,0-.9-.27-1.64-.81-2.21-.54-.57-1.25-1.07-2.14-1.5-.89-.42-1.9-.81-3.04-1.14-1.14-.34-2.3-.71-3.49-1.11-1.19-.4-2.35-.87-3.49-1.41-1.14-.54-2.15-1.22-3.04-2.04-.89-.82-1.6-1.84-2.14-3.04-.54-1.2-.81-2.65-.81-4.35,0-1.58.31-3.08.94-4.5.62-1.43,1.54-2.67,2.76-3.73,1.21-1.06,2.72-1.91,4.54-2.55,1.81-.64,3.91-.96,6.28-.96,2.65,0,5.06.44,7.24,1.31,2.17.88,3.99,2.03,5.44,3.45l-2.1,3.34Z"/><path class="cls-1" d="M368.32,24.64c-.25.4-.51.68-.79.84-.28.16-.62.24-1.05.24-.45,0-.93-.12-1.44-.38-.51-.25-1.11-.53-1.78-.84-.67-.31-1.44-.59-2.31-.84-.86-.25-1.88-.38-3.06-.38-1.83,0-3.26.39-4.29,1.16-1.04.78-1.56,1.79-1.56,3.04,0,.83.27,1.52.81,2.08.54.56,1.25,1.06,2.14,1.48.89.43,1.89.81,3.02,1.14,1.12.34,2.27.71,3.43,1.11,1.16.4,2.31.86,3.43,1.37,1.12.51,2.13,1.16,3.02,1.95.89.79,1.6,1.73,2.14,2.83.54,1.1.81,2.43.81,3.98,0,1.85-.33,3.56-.99,5.12-.66,1.56-1.64,2.91-2.94,4.05-1.3,1.14-2.91,2.02-4.82,2.66-1.91.64-4.12.96-6.62.96-1.33,0-2.62-.12-3.88-.36-1.26-.24-2.48-.57-3.64-.99-1.16-.42-2.24-.92-3.23-1.5-.99-.57-1.86-1.2-2.61-1.88l2.14-3.52c.28-.42.6-.75.98-.98s.85-.34,1.42-.34,1.12.16,1.63.49c.51.33,1.11.68,1.78,1.05.68.38,1.47.73,2.38,1.05.91.33,2.07.49,3.47.49,1.1,0,2.04-.13,2.83-.39s1.44-.61,1.95-1.03c.51-.42.89-.92,1.12-1.48.24-.56.36-1.14.36-1.74,0-.9-.27-1.64-.81-2.21-.54-.57-1.25-1.07-2.14-1.5-.89-.42-1.9-.81-3.04-1.14-1.14-.34-2.3-.71-3.49-1.11-1.19-.4-2.35-.87-3.49-1.41-1.14-.54-2.15-1.22-3.04-2.04-.89-.82-1.6-1.84-2.14-3.04-.54-1.2-.81-2.65-.81-4.35,0-1.58.31-3.08.94-4.5.62-1.43,1.54-2.67,2.76-3.73,1.21-1.06,2.72-1.91,4.54-2.55,1.81-.64,3.91-.96,6.28-.96,2.65,0,5.06.44,7.24,1.31,2.17.88,3.99,2.03,5.44,3.45l-2.1,3.34Z"/><path class="cls-2" d="M67.16,90.65h-23.78v68.96h-19.6v-68.96H0v-15.54h67.16v15.54Z"/><path class="cls-2" d="M76.04,132.76c.58,5.03,2.11,8.67,4.58,10.93,2.47,2.26,5.66,3.39,9.57,3.39,2.09,0,3.89-.25,5.39-.75,1.51-.5,2.85-1.06,4.03-1.68,1.18-.62,2.26-1.18,3.25-1.68.99-.5,2.02-.75,3.1-.75,1.43,0,2.51.52,3.25,1.57l5.22,6.44c-1.86,2.13-3.86,3.86-6,5.19s-4.35,2.38-6.61,3.13c-2.26.75-4.52,1.28-6.79,1.57s-4.42.44-6.47.44c-4.22,0-8.17-.69-11.86-2.06-3.69-1.37-6.92-3.41-9.69-6.12-2.76-2.71-4.95-6.07-6.55-10.09-1.6-4.02-2.41-8.7-2.41-14.04,0-4.02.69-7.83,2.06-11.43,1.37-3.6,3.34-6.75,5.92-9.45,2.57-2.71,5.68-4.85,9.34-6.44,3.65-1.59,7.78-2.38,12.38-2.38,3.98,0,7.63.62,10.93,1.86,3.31,1.24,6.15,3.04,8.53,5.39,2.38,2.36,4.23,5.25,5.57,8.67,1.33,3.42,2,7.3,2,11.63,0,1.35-.06,2.46-.17,3.31-.12.85-.33,1.53-.64,2.03-.31.5-.73.85-1.25,1.04s-1.19.29-2,.29h-34.68ZM98.66,122.32c0-1.43-.18-2.82-.55-4.18-.37-1.35-.97-2.56-1.8-3.62-.83-1.06-1.92-1.92-3.28-2.58-1.35-.66-3-.99-4.93-.99-3.4,0-6.07.98-8,2.93-1.93,1.95-3.21,4.77-3.83,8.44h22.39Z"/><path class="cls-2" d="M140.59,108.75c1.86-3.25,3.99-5.8,6.41-7.66,2.42-1.86,5.19-2.78,8.32-2.78,2.71,0,4.91.64,6.61,1.91l-1.16,13.22c-.19.85-.51,1.43-.96,1.74-.45.31-1.05.46-1.83.46-.31,0-.72-.02-1.22-.06-.5-.04-1.02-.09-1.57-.15-.54-.06-1.09-.12-1.65-.17-.56-.06-1.07-.09-1.54-.09-2.63,0-4.73.7-6.29,2.09-1.57,1.39-2.89,3.33-3.97,5.8v36.54h-17.98v-60.15h10.67c.89,0,1.63.08,2.23.23.6.16,1.1.4,1.51.73.41.33.72.76.93,1.31.21.54.4,1.2.55,1.97l.93,5.05Z"/><path class="cls-2" d="M184.84,108.75c1.86-3.25,3.99-5.8,6.41-7.66,2.42-1.86,5.19-2.78,8.32-2.78,2.71,0,4.91.64,6.61,1.91l-1.16,13.22c-.19.85-.51,1.43-.96,1.74-.45.31-1.05.46-1.83.46-.31,0-.72-.02-1.22-.06-.5-.04-1.02-.09-1.57-.15-.54-.06-1.09-.12-1.65-.17-.56-.06-1.07-.09-1.54-.09-2.63,0-4.73.7-6.29,2.09-1.57,1.39-2.89,3.33-3.97,5.8v36.54h-17.98v-60.15h10.67c.89,0,1.63.08,2.23.23.6.16,1.1.4,1.51.73.41.33.72.76.93,1.31.21.54.4,1.2.55,1.97l.93,5.05Z"/><path class="cls-2" d="M232.52,82.99c0,1.43-.29,2.77-.87,4.03-.58,1.26-1.37,2.36-2.38,3.31-1.01.95-2.17,1.7-3.51,2.26-1.33.56-2.76.84-4.26.84s-2.84-.28-4.12-.84c-1.28-.56-2.41-1.31-3.39-2.26-.99-.95-1.76-2.05-2.32-3.31-.56-1.26-.84-2.6-.84-4.03s.28-2.84.84-4.12c.56-1.28,1.33-2.4,2.32-3.36.99-.97,2.12-1.72,3.39-2.26,1.28-.54,2.65-.81,4.12-.81s2.93.27,4.26.81c1.33.54,2.5,1.3,3.51,2.26,1,.97,1.8,2.09,2.38,3.36.58,1.28.87,2.65.87,4.12ZM230.66,99.47v60.15h-17.98v-60.15h17.98Z"/><path class="cls-2" d="M264.76,160.54c-2.86,0-5.39-.42-7.57-1.25-2.18-.83-4.02-2.01-5.51-3.54-1.49-1.53-2.62-3.37-3.39-5.54-.77-2.17-1.16-4.58-1.16-7.25v-31.09h-5.1c-.93,0-1.72-.3-2.38-.9-.66-.6-.99-1.48-.99-2.64v-7.02l9.57-1.86,3.54-14.67c.46-1.86,1.78-2.78,3.94-2.78h9.4v17.57h14.91v12.3h-14.91v29.87c0,1.39.34,2.54,1.01,3.45.68.91,1.65,1.36,2.93,1.36.66,0,1.21-.07,1.65-.2.44-.13.83-.29,1.16-.46.33-.17.64-.33.93-.46.29-.13.63-.2,1.02-.2.54,0,.98.13,1.3.38.33.25.67.65,1.01,1.19l5.45,8.53c-2.32,1.74-4.93,3.04-7.83,3.92-2.9.87-5.9,1.31-8.99,1.31Z"/><path class="cls-2" d="M314.93,98.54c4.56,0,8.72.72,12.47,2.15,3.75,1.43,6.97,3.48,9.66,6.15,2.69,2.67,4.77,5.91,6.26,9.71,1.49,3.81,2.23,8.09,2.23,12.85s-.75,9.12-2.23,12.96c-1.49,3.85-3.58,7.12-6.26,9.8s-5.91,4.76-9.66,6.21c-3.75,1.45-7.91,2.18-12.47,2.18s-8.79-.73-12.56-2.18c-3.77-1.45-7.02-3.52-9.74-6.21-2.73-2.69-4.83-5.95-6.32-9.8-1.49-3.85-2.23-8.17-2.23-12.96s.74-9.04,2.23-12.85c1.49-3.81,3.6-7.05,6.32-9.71,2.73-2.67,5.97-4.72,9.74-6.15,3.77-1.43,7.96-2.15,12.56-2.15ZM314.93,147.2c4.14,0,7.18-1.46,9.13-4.38,1.95-2.92,2.93-7.36,2.93-13.31s-.98-10.38-2.93-13.28c-1.95-2.9-5-4.35-9.13-4.35s-7.37,1.45-9.34,4.35c-1.97,2.9-2.96,7.33-2.96,13.28s.99,10.39,2.96,13.31c1.97,2.92,5.08,4.38,9.34,4.38Z"/><path class="cls-2" d="M371.43,108.75c1.86-3.25,3.99-5.8,6.41-7.66,2.42-1.86,5.19-2.78,8.32-2.78,2.71,0,4.91.64,6.61,1.91l-1.16,13.22c-.19.85-.51,1.43-.96,1.74-.44.31-1.05.46-1.83.46-.31,0-.72-.02-1.22-.06-.5-.04-1.02-.09-1.57-.15-.54-.06-1.09-.12-1.65-.17-.56-.06-1.07-.09-1.54-.09-2.63,0-4.73.7-6.29,2.09-1.57,1.39-2.89,3.33-3.97,5.8v36.54h-17.98v-60.15h10.67c.89,0,1.63.08,2.23.23.6.16,1.1.4,1.51.73.41.33.71.76.93,1.31.21.54.4,1.2.55,1.97l.93,5.05Z"/><path class="cls-2" d="M457.73,99.47l-32.13,75.75c-.54,1.2-1.2,2.08-1.97,2.64-.77.56-2.01.84-3.71.84h-13.46l11.6-24.36-24.01-54.87h15.89c1.39,0,2.46.31,3.22.93.75.62,1.3,1.35,1.65,2.2l9.86,25.93c.93,2.36,1.68,4.78,2.26,7.25.42-1.24.85-2.47,1.28-3.71.42-1.24.87-2.46,1.33-3.65l8.93-25.81c.35-.89.97-1.63,1.86-2.23.89-.6,1.86-.9,2.9-.9h14.5Z"/></svg>